<?xml version="1.0" encoding="UTF-8" ?>
<!DOCTYPE svg PUBLIC "-//W3C//DTD SVG 1.1//EN" "http://www.w3.org/Graphics/SVG/1.1/DTD/svg11.dtd">
<svg width="148pt" height="61pt" viewBox="0 0 148 61" version="1.1" xmlns="http://www.w3.org/2000/svg">
<path fill="#ffffff" stroke="#ffffff" stroke-width="0.125" d=" M 0.0 0.0 L 148.0 0.0 L 148.0 61.0 L 0.0 61.0 L 0.0 0.0 Z" />
<path fill="#00005d" stroke="#00005d" stroke-width="0.125" d=" M 15.6 29.8 C 19.0 23.2 27.1 20.9 34.0 21.0 C 41.1 20.9 49.2 23.4 52.6 30.2 C 49.3 30.3 46.0 30.3 42.7 30.3 C 38.4 26.6 31.6 25.9 26.9 29.2 C 24.9 30.5 24.5 33.5 26.3 35.1 C 30.7 39.0 37.7 38.5 42.2 35.0 C 45.5 34.1 49.2 34.8 52.7 34.7 C 50.0 39.8 44.6 42.6 39.2 43.5 C 32.5 44.6 25.1 43.7 19.4 39.6 C 16.6 37.4 13.8 33.6 15.6 29.8 Z" />
<path fill="#00005d" stroke="#00005d" stroke-width="0.125" d=" M 60.4 24.3 C 65.9 21.0 72.6 20.5 78.8 21.4 C 84.1 22.3 89.9 24.9 92.1 30.2 C 88.7 30.3 85.4 30.3 82.0 30.2 C 77.9 26.4 70.8 26.0 66.3 29.4 C 64.2 30.9 64.3 34.2 66.5 35.6 C 71.0 38.9 77.9 38.5 82.0 34.7 C 85.3 34.6 88.7 34.6 92.0 34.7 C 90.2 39.4 85.3 41.9 80.7 43.1 C 74.0 44.7 66.5 44.2 60.5 40.6 C 57.6 38.9 54.8 35.9 54.8 32.3 C 55.0 28.8 57.6 26.0 60.4 24.3 Z" />
<path fill="#00005d" stroke="#00005d" stroke-width="0.125" d=" M 95.3 28.5 C 97.9 24.4 102.6 22.4 107.1 21.5 C 113.7 20.4 120.8 20.9 126.6 24.6 C 129.8 26.7 132.7 30.5 131.6 34.6 C 122.6 34.7 113.5 34.6 104.5 34.7 C 107.5 38.2 112.8 38.3 117.1 37.4 C 121.3 35.4 126.2 36.1 130.8 36.5 C 125.2 42.9 116.0 44.9 107.9 43.5 C 103.3 42.7 98.6 40.8 95.7 37.0 C 93.8 34.6 93.6 31.0 95.3 28.5 Z" />
<path fill="#ffffff" stroke="#ffffff" stroke-width="0.125" d=" M 104.9 30.3 C 108.6 25.7 117.1 26.0 121.2 30.1 C 115.8 30.3 110.3 30.2 104.9 30.3 Z" />
</svg>
