<svg xmlns="http://www.w3.org/2000/svg" width="400" height="84.393" fill="#003E72" viewBox="0 0 400 84.393"><title>Itautec</title><path d="M272.6,37.683h-14.142v26.576c0,1.08-0.166,2.039-0.503,2.915-1.116,2.745-3.948,5.904-8.606,5.904-5.825,0-8.403-4.285-8.403-11.48v-23.915h-14.142v26.452c0,14.93,8.149,20.258,17.306,20.258,9.354,0,13.888-5.369,15.636-8.279h0.29v7.153h12.564v-45.584z"/><path d="M197.11,36.604v9.607c-0.494-0.046-1.038-0.088-1.619-0.088-4.949,0-10.438,1.748-13.602,3.662l-2.661-8.897c3.41-1.996,9.6-4.206,17.88-4.284m0,38.597c-0.457,0.078-0.909,0.124-1.412,0.124-3.953,0-6.656-2.039-6.656-5.867,0-4.035,3.206-6.199,8.067-7.149v-9.072c-13.561,1.458-21.208,7.278-21.208,17.265,0,6.899,5.447,13.893,15.558,13.893,1.993,0,3.902-0.254,5.65-0.711v-8.483zm8.03-8.654c0,0.789-0.042,1.748-0.291,2.537-0.955,2.827-3.828,5.571-7.739,6.116v8.481c3.496-0.918,6.448-2.702,8.486-5.156h0.332v4.741h12.896v-26.87c0-10.854-5.369-19.834-20.963-19.834-0.249,0-0.498,0-0.751,0.042v9.607c6.743,0.493,7.615,4.197,7.615,6.194v0.503c-2.708-0.042-5.245,0.078-7.615,0.327v9.072c2.371-0.461,5.078-0.668,8.03-0.627v4.867z"/><path d="M327.63,65.048c0.332,4.492,3.786,7.2,8.32,8.237v11.025c-13.98-0.96-21.923-9.778-21.923-23.251,0-11.314,6.905-23.833,21.923-24.46v9.441c-5.696,0.295-8.03,5.576-8.445,9.28h8.445v9.728h-8.313zm8.32-28.449c0.415-0.042,0.789-0.042,1.204-0.042,14.847,0,20.465,11.563,20.465,22.882,0,2.449-0.254,4.57-0.503,5.608h-21.166v-9.728h8.44c0-3.455-1.536-9.28-8.025-9.28h-0.415v-9.44zm0,36.687c1.453,0.333,2.993,0.499,4.617,0.499,4.824,0,8.777-0.665,12.601-1.951l1.956,9.648c-4.741,1.951-10.479,2.906-16.642,2.906-0.872,0-1.702-0.042-2.532-0.078v-11.024z"/><path d="M399.92,82.271c-2.536,1.167-7.324,2.117-12.767,2.117-14.815,0-24.252-9.068-24.252-23.496,0-13.353,9.151-24.334,26.203-24.334,3.786,0,7.905,0.71,10.898,1.831l-2.204,10.609c-1.748-0.789-4.243-1.458-7.989-1.458-7.568,0-12.393,5.281-12.352,12.809,0,8.404,5.655,12.896,12.56,12.896,3.413,0,6.033-0.623,8.237-1.499l1.66,10.525"/><rect y="22.416" x="120.41" height="60.851" width="14.142"/><path d="M147.82,22.416v15.267h-6.448v10.567h6.448v18.38c0,6.116,1.204,10.733,3.865,13.519,2.251,2.454,6.241,4.239,11.106,4.239,4.119,0,5.78-0.623,7.657-1.37l-0.17-10.649c-0.374,0.207-0.416,0.502-2.745,0.502-4.866,0-5.991-3.039-5.991-8.611v-16.01h8.736v-10.567h-8.736v-15.267h-13.728z"/><path d="M285.87,22.416v15.267h-6.443v10.567h6.443v18.38c0,6.116,1.25,10.733,3.869,13.519,2.288,2.454,6.282,4.239,11.103,4.239,4.165,0,5.825-0.623,7.656-1.37l-0.124-10.649c-0.374,0.207-0.462,0.502-2.745,0.502-4.907,0-6.032-3.039-6.032-8.611v-16.01h8.777v-10.567h-8.777v-15.267h-13.743z"/><path d="M20.839,41.673c0-11.517,9.317-20.88,20.838-20.88,11.518,0,20.839,9.363,20.839,20.88,0,11.48-9.321,20.797-20.839,20.797-11.521,0-20.838-9.317-20.838-20.797"/><path d="M10.438,0h62.475c5.779,0,10.438,4.654,10.438,10.401v31.276c-4.613-12.73-21.793-26.54-42.13-26.54-18.675,0-37.144,15.35-41.221,26.54v-31.276c0-5.747,4.659-10.401,10.438-10.401"/><path d="M0,72.913v-31.236c4.077,11.148,22.545,26.494,41.221,26.494,20.336,0,37.513-13.852,42.134-26.494v31.235c0,5.737-4.659,10.4-10.442,10.4h-62.475c-5.779,0.001-10.438-4.662-10.438-10.399"/></svg>