<?xml version="1.0" encoding="UTF-8" standalone="no"?>
<!DOCTYPE svg PUBLIC "-//W3C//DTD SVG 1.1//EN" "http://www.w3.org/Graphics/SVG/1.1/DTD/svg11.dtd">
<svg width="100%" height="100%" viewBox="0 0 400 54" version="1.1" xmlns="http://www.w3.org/2000/svg" xmlns:xlink="http://www.w3.org/1999/xlink" xml:space="preserve" xmlns:serif="http://www.serif.com/" style="fill-rule:evenodd;clip-rule:evenodd;stroke-linejoin:round;stroke-miterlimit:1.41421;">
    <g transform="matrix(1,0,0,1,-70,-243)">
        <path d="M166.599,287.045L166.599,273.475L136.967,273.475L136.967,287.045L127.139,287.045L127.139,250.217L136.967,250.217L136.967,266.172L166.599,266.172L166.599,250.217L176.501,250.217L176.501,287.045" style="fill-rule:nonzero;"/>
        <rect x="193.231" y="250.22" width="9.903" height="36.825" style="fill-rule:nonzero;"/>
        <path d="M229.315,287.045L219.413,287.045L219.413,250.219L229.315,250.219L229.315,280.409L256.471,280.409L256.471,287.045" style="fill-rule:nonzero;"/>
        <path d="M305.683,276.31L306.434,284.21C293.155,289.951 273.202,291.59 261.422,281.75C257.448,277.726 255.571,272.508 256.697,266.544C258.348,258.715 265.699,252.754 273.95,250.145C285.278,247.61 297.206,248.28 306.886,252.454L306.586,258.866C303.583,257.971 301.032,257.15 298.258,256.332C288.73,254.467 275.376,253.723 269.45,262.966C267.725,267.065 266.525,271.91 270.05,276.982C275.902,283.764 285.73,282.943 293.755,281.75C298.258,280.26 302.309,279.29 305.683,276.31Z" style="fill-rule:nonzero;"/>
        <path d="M81.978,268.034L81.978,257.002L104.558,257.002C106.959,257.374 108.609,258.941 109.359,261.175C109.659,263.338 109.059,265.128 107.784,266.693C107.784,266.693 106.959,267.514 106.284,267.737C105.834,267.96 105.084,268.034 105.084,268.034L81.978,268.034ZM105.308,275.34L81.978,275.34L81.978,287.045L72,287.045L72,250.145L109.959,250.145C111.535,250.442 113.56,250.814 114.686,251.263C119.112,252.902 120.012,255.66 121.137,258.792C122.113,261.996 121.287,266.618 119.637,268.93C116.861,272.88 113.41,274.894 105.308,275.34Z"/>
        <path d="M342.07,253.498C351.895,253.498 359.849,260.208 359.849,268.406C359.849,276.607 351.895,283.243 342.07,283.243C332.242,283.243 324.214,276.607 324.214,268.406C324.214,260.208 332.242,253.498 342.07,253.498ZM341.77,247.982C358.198,247.982 371.551,257.076 371.551,268.406C371.551,279.665 358.198,288.833 341.77,288.833C325.265,288.833 311.986,279.665 311.986,268.406C311.986,257.076 325.265,247.982 341.77,247.982Z"/>
        <path d="M440.045,293.306C453.322,290.623 463.524,283.541 466.375,274.819L466.375,293.306L440.045,293.306ZM389.63,274.819C392.407,283.541 402.684,290.623 415.963,293.306L389.63,293.306L389.63,274.819ZM415.963,246.492C402.684,249.25 392.407,256.255 389.63,264.979L389.63,246.492L415.963,246.492ZM466.375,264.979C463.524,256.255 453.322,249.25 440.045,246.492L466.375,246.492L466.375,264.979ZM452.047,287.491C450.322,286.075 447.77,284.808 444.694,283.838C447.022,280.111 448.445,275.563 448.596,270.718L465.401,270.718C465.026,277.428 459.924,283.466 452.047,287.491ZM443.719,285.329C446.422,286.15 448.745,287.119 450.322,288.312C445.822,290.323 440.645,291.742 434.942,292.411C438.394,290.995 441.394,288.535 443.719,285.329ZM412.586,285.254C415.063,288.535 418.289,291.07 421.814,292.486C415.812,291.89 410.335,290.4 405.61,288.238C407.335,287.119 409.661,286.075 412.586,285.254ZM407.41,270.718C407.561,275.489 409.135,280.037 411.535,283.764C408.31,284.734 405.61,286.001 403.884,287.417C396.082,283.392 390.982,277.428 390.607,270.718L407.41,270.718ZM403.884,252.382C405.686,253.795 408.31,255.065 411.612,255.958C409.135,259.762 407.561,264.307 407.41,269.078L390.607,269.078C390.982,262.37 396.082,256.406 403.884,252.382ZM412.586,254.542C409.735,253.723 407.335,252.754 405.61,251.561C410.335,249.398 415.812,247.908 421.814,247.31C418.289,248.726 415.063,251.263 412.586,254.542ZM443.645,254.467C441.319,251.263 438.319,248.803 434.942,247.385C440.568,248.057 445.822,249.473 450.247,251.486C448.67,252.679 446.345,253.646 443.645,254.467ZM428.866,269.078L428.866,258.194C433.968,258.12 438.845,257.525 442.97,256.406C445.294,259.985 446.722,264.382 446.87,269.078L428.866,269.078ZM428.866,281.602L428.866,270.718L446.87,270.718C446.796,275.414 445.37,279.814 443.045,283.392C438.919,282.274 433.968,281.602 428.866,281.602ZM428.866,283.243C433.517,283.318 438.094,283.913 441.994,284.808C438.694,289.13 433.968,291.965 428.866,292.114L428.866,283.243ZM427.14,283.243L427.14,292.039C422.189,291.665 417.612,288.907 414.312,284.808C418.138,283.838 422.563,283.318 427.14,283.243ZM427.14,270.718L427.14,281.602C422.114,281.676 417.312,282.274 413.263,283.318C410.786,279.739 409.286,275.34 409.135,270.718L427.14,270.718ZM427.14,258.194L427.14,269.078L409.135,269.078C409.286,264.456 410.786,260.059 413.263,256.481C417.312,257.525 422.189,258.12 427.14,258.194ZM427.14,256.481C422.563,256.481 418.138,255.883 414.386,254.99C417.689,250.889 422.189,248.131 427.14,247.759L427.14,256.481ZM428.866,247.759C433.891,247.908 438.619,250.666 441.919,254.99C438.017,255.883 433.517,256.481 428.866,256.481L428.866,247.759ZM448.596,269.078C448.37,264.233 446.945,259.685 444.619,255.958C447.77,254.99 450.322,253.723 451.97,252.305C459.924,256.332 465.026,262.37 465.401,269.078L448.596,269.078ZM387.905,295.02L468.026,295.02L468.026,244.925L387.905,244.925L387.905,295.02Z" style="fill:rgb(0,159,223);fill-rule:nonzero;"/>
        <path d="M373.428,246.343C371.4,246.343 369.751,247.982 369.751,249.994C369.751,252.007 371.4,253.646 373.428,253.646C375.528,253.646 377.177,252.007 377.177,249.994C377.177,247.982 375.528,246.343 373.428,246.343ZM373.428,254.616C370.877,254.616 368.777,252.53 368.777,249.994C368.777,247.462 370.877,245.374 373.428,245.374C376.054,245.374 378.154,247.462 378.154,249.994C378.154,252.53 376.054,254.616 373.428,254.616Z" style="fill-rule:nonzero;"/>
        <path d="M372.528,250.294L373.351,250.294C374.028,250.294 374.177,250.666 374.177,251.112C374.177,251.412 374.251,252.007 374.328,252.305L374.928,252.305L374.928,252.156C374.851,252.156 374.777,252.007 374.777,251.858C374.702,251.561 374.702,251.186 374.628,250.889C374.628,250.294 374.477,250.07 373.877,249.994C374.402,249.922 374.702,249.547 374.702,249.026C374.777,247.908 374.177,247.685 373.202,247.685L372,247.685L372,252.305L372.528,252.305L372.528,250.294ZM372.528,248.131L373.202,248.131C373.577,248.131 374.177,248.131 374.177,248.952C374.251,249.77 373.577,249.77 373.277,249.77L372.528,249.77"/>
    </g>
</svg>
