<svg xmlns="http://www.w3.org/2000/svg" viewBox="0 0 453.18 303.93"><defs><style>.cls-1{font-size:48.16px;font-family:Ubuntu-Medium, Ubuntu Medium;}.cls-1,.cls-6,.cls-7{fill:#eee;}.cls-2{letter-spacing:-0.02em;}.cls-3,.cls-4,.cls-5{fill:#d0233c;}.cls-4{letter-spacing:0.01em;}.cls-5{letter-spacing:-0.02em;}.cls-6{font-size:24.08px;font-family:Ubuntu-Regular, Ubuntu;}</style></defs><title>Asset 2</title><g id="Layer_2" data-name="Layer 2"><g id="Layer_1_copy" data-name="Layer 1 copy"><text class="cls-1" transform="translate(0 260.59) scale(0.95 1)">N<tspan class="cls-2" x="35.63" y="0">O</tspan><tspan x="72.14" y="0">TEBOOK</tspan><tspan class="cls-3" x="277.76" y="0">DO</tspan><tspan class="cls-4" x="350.38" y="0">C</tspan><tspan class="cls-5" x="381.82" y="0">T</tspan><tspan class="cls-3" x="408.55" y="0">OR</tspan></text><text class="cls-6" transform="translate(119.11 299.38)">we heal your device</text><path class="cls-7" d="M334.79,176.57H117.34a9.66,9.66,0,0,1-9.66-9.65V9.66A9.67,9.67,0,0,1,117.34,0H334.79a9.67,9.67,0,0,1,9.66,9.66V166.92A9.66,9.66,0,0,1,334.79,176.57ZM117.34,8a1.63,1.63,0,0,0-1.63,1.63V166.92a1.63,1.63,0,0,0,1.63,1.62H334.79a1.63,1.63,0,0,0,1.63-1.62V9.66A1.63,1.63,0,0,0,334.79,8Z"/><path class="cls-7" d="M374.92,160.52H260.18v3.27c-1.64,1.56-2.91,2.83-4.47.74H197.46c-1.56,2.09-2.82.82-1.49-.74v-3.27H77.21a5.64,5.64,0,0,0-5.64,5.64v1.6a12.82,12.82,0,0,0,12.82,12.82H367.75a12.81,12.81,0,0,0,12.81-12.82v-1.6A5.64,5.64,0,0,0,374.92,160.52Z"/><ellipse class="cls-7" cx="258.17" cy="54.18" rx="6.02" ry="10.03"/><ellipse class="cls-7" cx="193.96" cy="54.18" rx="6.02" ry="10.03"/><path class="cls-7" d="M226.59,117.54c-17.26,0-35.84-7.27-35.84-23.23h8c0,10,14,15.21,27.82,15.21s27.81-5.23,27.81-15.21h8C262.43,110.27,243.85,117.54,226.59,117.54Z"/><path class="cls-7" d="M260.18,155.5H260a15,15,0,0,1,.2-30.09h.21a15,15,0,0,1-.2,30.09Zm0-28.09A13,13,0,0,0,260,153.5h.18a13,13,0,0,0,.18-26.09Z"/><circle class="cls-3" cx="260.18" cy="140.45" r="10.03"/><path class="cls-7" d="M260.18,151.49H260a11.11,11.11,0,1,1,.16,0Zm0-20.06a9,9,0,1,0,.13,0Z"/><circle class="cls-7" cx="260.18" cy="140.45" r="4.01"/><path class="cls-7" d="M103.64,87l-2.12-.15A16.32,16.32,0,0,1,102,54.26l2.12-.1ZM100,58.54a12.29,12.29,0,0,0-.33,24Z"/><path class="cls-7" d="M103.94,60.81a9.77,9.77,0,0,0-.27,19.47Z"/><path class="cls-7" d="M348.43,87l.45-32.83,2.12.15a16.32,16.32,0,0,1-.44,32.58Zm4.4-28.34-.32,24a12.3,12.3,0,0,0,.32-24Z"/><path class="cls-7" d="M352.74,60.88a9.76,9.76,0,0,1-.27,19.46Z"/><path class="cls-7" d="M209.14,136.4l-.13-4C310.1,129,365.39,117.31,373.36,97.61c2.85-7-.53-15.59-10-25.42l2.88-2.79c10.72,11.08,14.38,21.08,10.88,29.72-4.68,11.57-21.84,20.23-52.47,26.45C297,131.18,259.22,134.73,209.14,136.4Z"/><path class="cls-7" d="M208.71,136.36C124.74,120.9,81.85,104.9,77.6,87.47c-1.53-6.27,1.69-12.56,9.59-18.69L89.65,72c-6.53,5.07-9.28,10-8.16,14.57,1.87,7.66,13.77,15.48,35.36,23.23,21.29,7.65,52.44,15.27,92.59,22.67Z"/><path class="cls-7" d="M235.29,160l-.83,0c-9.52-.45-18.4-8.49-27.15-24.59l3.53-1.92c7.91,14.56,15.92,22.13,23.81,22.5,7.36.35,15.25-5.63,23.38-17.75l3.33,2.24C252.55,153.55,244,160,235.29,160Z"/></g></g></svg>